<svg width="3000" height="120" xmlns="http://www.w3.org/2000/svg" xmlns:xlink="http://www.w3.org/1999/xlink">

<defs>
  <linearGradient id="fbicon" x1="0%" y1="0%" x2="0%" y2="100%">
    <stop offset="0%" style="stop-color:#FFFFFF;stop-opacity:1"/>
    <stop offset="100%" style="stop-color:#A0A0A0;stop-opacity:1"/>
  </linearGradient>
</defs>


<path fill="url(#fbicon)" d="M120,20 a20,20 0 0,1 20,-20 l80,0 a20,20 0 0,1 20,20 l0,80 a20,20 0 0,1 -20,20 l-80,0 a20,20 0 0,1 -20,-20 z"/>
<path fill="url(#fbicon)" d="M360,20 a20,20 0 0,1 20,-20 l80,0 a20,20 0 0,1 20,20 l0,80 a20,20 0 0,1 -20,20 l-80,0 a20,20 0 0,1 -20,-20 z"/>
<path fill="url(#fbicon)" d="M720,20 a20,20 0 0,1 20,-20 l80,0 a20,20 0 0,1 20,20 l0,80 a20,20 0 0,1 -20,20 l-80,0 a20,20 0 0,1 -20,-20 z"/>
<path fill="url(#fbicon)" d="M1080,20 a20,20 0 0,1 20,-20 l80,0 a20,20 0 0,1 20,20 l0,80 a20,20 0 0,1 -20,20 l-80,0 a20,20 0 0,1 -20,-20 z"/>
<path fill="url(#fbicon)" d="M1320,20 a20,20 0 0,1 20,-20 l80,0 a20,20 0 0,1 20,20 l0,80 a20,20 0 0,1 -20,20 l-80,0 a20,20 0 0,1 -20,-20 z"/>
<path fill="url(#fbicon)" d="M1680,20 a20,20 0 0,1 20,-20 l80,0 a20,20 0 0,1 20,20 l0,80 a20,20 0 0,1 -20,20 l-80,0 a20,20 0 0,1 -20,-20 z"/>
<path fill="url(#fbicon)" d="M1920,20 a20,20 0 0,1 20,-20 l80,0 a20,20 0 0,1 20,20 l0,80 a20,20 0 0,1 -20,20 l-80,0 a20,20 0 0,1 -20,-20 z"/>
<path fill="url(#fbicon)" d="M2160,20 a20,20 0 0,1 20,-20 l80,0 a20,20 0 0,1 20,20 l0,80 a20,20 0 0,1 -20,20 l-80,0 a20,20 0 0,1 -20,-20 z"/>
<path fill="url(#fbicon)" d="M2400,20 a20,20 0 0,1 20,-20 l80,0 a20,20 0 0,1 20,20 l0,80 a20,20 0 0,1 -20,20 l-80,0 a20,20 0 0,1 -20,-20 z"/>
<path fill="url(#fbicon)" d="M2640,20 a20,20 0 0,1 20,-20 l80,0 a20,20 0 0,1 20,20 l0,80 a20,20 0 0,1 -20,20 l-80,0 a20,20 0 0,1 -20,-20 z"/>
<path fill="url(#fbicon)" d="M2880,20 a20,20 0 0,1 20,-20 l80,0 a20,20 0 0,1 20,20 l0,80 a20,20 0 0,1 -20,20 l-80,0 a20,20 0 0,1 -20,-20 z"/>

<path fill="white" d="M47.5,60 l-22.5,-22.5 a8.839,8.839 0 0,1 12.5,-12.5 l22.5,22.5 l22.5,-22.5 a8.839,8.839 0 0,1 12.5,12.5 l-22.5,22.5 l22.5,22.5 a8.839,8.839 0 0,1 -12.5,12.5 l-22.5,-22.5 l-22.5,22.5 a8.839,8.839 0 0,1 -12.5,-12.5 z"/>
<path fill="black" d="M167.5,60 l-22.5,-22.5 a8.839,8.839 0 0,1 12.5,-12.5 l22.5,22.5 l22.5,-22.5 a8.839,8.839 0 0,1 12.5,12.5 l-22.5,22.5 l22.5,22.5 a8.839,8.839 0 0,1 -12.5,12.5 l-22.5,-22.5 l-22.5,22.5 a8.839,8.839 0 0,1 -12.5,-12.5 z"/>

<path fill="white" d="M260,20 h25 l-8.75,8.75 l13.75,13.75 a5.3033,5.3033 0 0,1 -7.5,7.5 l-13.75,-13.75 l-8.75,8.75 z m80,0 v25 l-8.75,-8.75 l-13.75,13.75 a5.3033,5.3033 0 0,1 -7.5,-7.5 l13.75,-13.75 l-8.75,-8.75 z m0,80 h-25 l8.75,-8.75 l-13.75,-13.75 a5.3033,5.3033 0 0,1 7.5,-7.5 l13.75,13.75 l8.75,-8.75 z m-80,0 v-25 l8.75,8.75 l13.75,-13.75 a5.3033,5.3033 0 0,1 7.5,7.5 l-13.75,13.75 l8.75,8.75 z"/>
<path fill="black" d="M380,20 h25 l-8.75,8.75 l13.75,13.75 a5.3033,5.3033 0 0,1 -7.5,7.5 l-13.75,-13.75 l-8.75,8.75 z m80,0 v25 l-8.75,-8.75 l-13.75,13.75 a5.3033,5.3033 0 0,1 -7.5,-7.5 l13.75,-13.75 l-8.75,-8.75 z m0,80 h-25 l8.75,-8.75 l-13.75,-13.75 a5.3033,5.3033 0 0,1 7.5,-7.5 l13.75,13.75 l8.75,-8.75 z m-80,0 v-25 l8.75,8.75 l13.75,-13.75 a5.3033,5.3033 0 0,1 7.5,7.5 l-13.75,13.75 l8.75,8.75 z"/>
<path fill="gray" d="M500,20 h25 l-8.75,8.75 l13.75,13.75 a5.3033,5.3033 0 0,1 -7.5,7.5 l-13.75,-13.75 l-8.75,8.75 z m80,0 v25 l-8.75,-8.75 l-13.75,13.75 a5.3033,5.3033 0 0,1 -7.5,-7.5 l13.75,-13.75 l-8.75,-8.75 z m0,80 h-25 l8.75,-8.75 l-13.75,-13.75 a5.3033,5.3033 0 0,1 7.5,-7.5 l13.75,13.75 l8.75,-8.75 z m-80,0 v-25 l8.75,8.75 l13.75,-13.75 a5.3033,5.3033 0 0,1 7.5,7.5 l-13.75,13.75 l8.75,8.75 z"/>

<path fill="white" d="M645,50 h25 v35 a5,5 0 0,0 5,5 h5 v10 h-40 v-10 h5 a5,5 0 0,0 5,-5 v-20 a5,5 0 0,0 -5,-5 h-5 z m12.5,-10 a7.5,7.5 0 0,1 0,-15 h5 a7.5,7.5 0 1,1 0,15 z"/>
<path fill="black" d="M765,50 h25 v35 a5,5 0 0,0 5,5 h5 v10 h-40 v-10 h5 a5,5 0 0,0 5,-5 v-20 a5,5 0 0,0 -5,-5 h-5 z m12.5,-10 a7.5,7.5 0 0,1 0,-15 h5 a7.5,7.5 0 1,1 0,15 z"/>
<path fill="gray" d="M885,50 h25 v35 a5,5 0 0,0 5,5 h5 v10 h-40 v-10 h5 a5,5 0 0,0 5,-5 v-20 a5,5 0 0,0 -5,-5 h-5 z m12.5,-10 a7.5,7.5 0 0,1 0,-15 h5 a7.5,7.5 0 1,1 0,15 z"/>

<path fill="white" d="M990,60 h10 v-15 a20,20 0 0,1 40,0 v15 h10 v40 h-60 z m20,0 h20 v-15 a10,10 0 0,0 -20,0 z m15,20 a10,5.5 0 1,0 -10,0 v5 a5,5 0 1,0 10,0 z"/>
<path fill="black" d="M1110,60 h10 v-15 a20,20 0 0,1 40,0 v15 h10 v40 h-60 z m20,0 h20 v-15 a10,10 0 0,0 -20,0 z m15,20 a10,5.5 0 1,0 -10,0 v5 a5,5 0 1,0 10,0 z"/>

<path fill="white" d="M1225,30 h70 v65 h-70 z m10,25 v30 h50 v-30 h-50 z"/>
<path fill="black" d="M1345,30 h70 v65 h-70 z m10,25 v30 h50 v-30 h-50 z"/>
<path fill="gray" d="M1465,30 h70 v65 h-70 z m10,25 v30 h50 v-30 h-50 z"/>

<path fill="white" d="M1585,75 h70 v20 h-70 z"/>
<path fill="black" d="M1705,75 h70 v20 h-70 z"/>

<path fill="white" d="M1835,25 h60 v60 h-10 v-50 h-50 z m-15,15 h60 v60 h-60 z m10,20 v30 h40 v-30 z"/>
<path fill="black" d="M1955,25 h60 v60 h-10 v-50 h-50 z m-15,15 h60 v60 h-60 z m10,20 v30 h40 v-30 z"/>

<path fill="white" d="M2062.664,63.5 l0,-7 l13.336,-3.5 a25,25 0 0,1 2.08,-5.021 l-6.956,-11.905 l4.95,-4.95 l11.905,6.956 a25,25 0 0,1 5.021,-2.08 l3.5,-13.336 l7,0 l3.5,13.336 a25,25 0 0,1 5.021,2.08 l11.905,-6.956 l4.95,4.95 l-6.956,11.905 a25,25 0 0,1 2.08,5.021 l13.336,3.5 l0,7 l-13.336,3.5 a25,25 0 0,1 -2.08,5.021 l6.956,11.905 l-4.95,4.95 l-11.905,-6.956 a25,25 0 0,1 -5.021,2.08 l-3.5,13.336 l-7,0 l-3.5,-13.336 a25,25 0 0,1 -5.021,-2.08 l-11.905,6.956 l-4.95,-4.95 l6.956,-11.905 a25,25 0 0,1 -2.08,-5.021 z m24.836,-3.5 a12.5,12.5 0 0,0 25,0 a12.5,12.5 0 0,0 -25,0"/>
<path fill="black" d="M2182.664,63.5 l0,-7 l13.336,-3.5 a25,25 0 0,1 2.08,-5.021 l-6.956,-11.905 l4.95,-4.95 l11.905,6.956 a25,25 0 0,1 5.021,-2.08 l3.5,-13.336 l7,0 l3.5,13.336 a25,25 0 0,1 5.021,2.08 l11.905,-6.956 l4.95,4.95 l-6.956,11.905 a25,25 0 0,1 2.08,5.021 l13.336,3.5 l0,7 l-13.336,3.5 a25,25 0 0,1 -2.08,5.021 l6.956,11.905 l-4.95,4.95 l-11.905,-6.956 a25,25 0 0,1 -5.021,2.08 l-3.5,13.336 l-7,0 l-3.5,-13.336 a25,25 0 0,1 -5.021,-2.08 l-11.905,6.956 l-4.95,-4.95 l6.956,-11.905 a25,25 0 0,1 -2.08,-5.021 z m24.836,-3.5 a12.5,12.5 0 0,0 25,0 a12.5,12.5 0 0,0 -25,0"/>

<path fill="white" d="M2300,60 h40,0 v-20 a20,20 0 0,1 40,0 v15 h-10 v-15 a10,10 0 0,0 -20,0 v20 h10 v40 h-60 z m35,20 a10,5.5 0 1,0 -10,0 v5 a5,5 0 1,0 10,0 z"/>
<path fill="black" d="M2420,60 h40,0 v-20 a20,20 0 0,1 40,0 v15 h-10 v-15 a10,10 0 0,0 -20,0 v20 h10 v40 h-60 z m35,20 a10,5.5 0 1,0 -10,0 v5 a5,5 0 1,0 10,0 z"/>

<path fill="white" d="M2570,50 h-25 l8.75,-8.75 l-13.75,-13.75 a5.3033,5.3033 0 0,1 7.5,-7.5 l13.75,13.75 l8.75,-8.75 z m20,0 v-25 l8.75,8.75 l13.75,-13.75 a5.3033,5.3033 0 0,1 7.5,7.5 l-13.75,13.75 l8.75,8.75 z m0,20 h25 l-8.75,8.75 l13.75,13.75 a5.3033,5.3033 0 0,1 -7.5,7.5 l-13.75,-13.75 l-8.75,8.75 z m-20,0 v25 l-8.75,-8.75 l-13.75,13.75 a5.3033,5.3033 0 0,1 -7.5,-7.5 l13.75,-13.75 l-8.75,-8.75 z"/>
<path fill="black" d="M2690,50 h-25 l8.75,-8.75 l-13.75,-13.75 a5.3033,5.3033 0 0,1 7.5,-7.5 l13.75,13.75 l8.75,-8.75 z m20,0 v-25 l8.75,8.75 l13.75,-13.75 a5.3033,5.3033 0 0,1 7.5,7.5 l-13.75,13.75 l8.75,8.75 z m0,20 h25 l-8.75,8.75 l13.75,13.75 a5.3033,5.3033 0 0,1 -7.5,7.5 l-13.75,-13.75 l-8.75,8.75 z m-20,0 v25 l-8.75,-8.75 l-13.75,13.75 a5.3033,5.3033 0 0,1 -7.5,-7.5 l13.75,-13.75 l-8.75,-8.75 z"/>

<path fill="white" d="M2800,80 h-20 v-60 h80 v60 h-20 v-10 h10 v-40 h-60 v40 h10 z m20,22.5 l-17.5,-17.5 h12.5 v-25 a5,5 0 0,1 10,0 v25 h12.5 z"/>
<path fill="black" d="M2920,80 h-20 v-60 h80 v60 h-20 v-10 h10 v-40 h-60 v40 h10 z m20,22.5 l-17.5,-17.5 h12.5 v-25 a5,5 0 0,1 10,0 v25 h12.5 z"/>

</svg>
