<svg width="120" height="120" xmlns="http://www.w3.org/2000/svg" xmlns:xlink="http://www.w3.org/1999/xlink">

<path fill="none" stroke="#C0C0C0" stroke-width="5" d="M7.5,37.5 a15,15 0 0,1 15,-15 h75 a15,15 0 0,1 15,15 v40 a15,15 0 0,1 -15,15 h-75 a15,15 0 0,1 -15,-15 z"/>
<path fill="none" stroke="#C0C0C0" stroke-width="5" d="M42.5,50 v-2.5 a5,5 0 0,0 -5,-5 h-5 a5,5 0 0,0 -5,5 v20 a5,5 0 0,0 5,5 h5 a5,5 0 0,0 5,-5 v-10 h-7.5
 m17.5,17.5 v-32.5 h10 a5,5 0 0,1 5,5 v5 a5,5 0 0,1 -5,5 h-10
 m25,-17.5 v27.5 a5,5 0 0,0 5,5 h5 a5,5 0 0,0 5,-5 v-27.5"/>

</svg>