<svg width="1920" height="120" xmlns="http://www.w3.org/2000/svg" xmlns:xlink="http://www.w3.org/1999/xlink">

<defs>
  <linearGradient id="button" x1="0%" y1="0%" x2="0%" y2="100%">
    <stop offset="0%" style="stop-color:#FFFFFF;stop-opacity:1"/>
    <stop offset="45%" style="stop-color:#B4B4B4;stop-opacity:1"/>
    <stop offset="55%" style="stop-color:#B4B4B4;stop-opacity:1"/>
    <stop offset="100%" style="stop-color:#FFFFFF;stop-opacity:1"/>
  </linearGradient>
  <linearGradient id="button-rotated" x1="0%" y1="0%" x2="100%" y2="0%">
    <stop offset="0%" style="stop-color:#FFFFFF;stop-opacity:1"/>
    <stop offset="45%" style="stop-color:#B4B4B4;stop-opacity:1"/>
    <stop offset="55%" style="stop-color:#B4B4B4;stop-opacity:1"/>
    <stop offset="100%" style="stop-color:#FFFFFF;stop-opacity:1"/>
  </linearGradient>
  <linearGradient id="silence" x1="0%" y1="20%" x2="0%" y2="80%">
    <stop offset="0%" style="stop-color:#E89682;stop-opacity:1"/>
    <stop offset="100%" style="stop-color:#C85A5A;stop-opacity:1"/>
  </linearGradient>
</defs>

<path fill="none" stroke="#C0C0C0" stroke-width="5" d="M7.5,17.5 a10,10 0 0,1 10,-10 h85 a10,10 0 0,1 10,10 v85 a10,10 0 0,1 -10,10 h-85 a10,10 0 0,1 -10,-10 z"/>
<path fill="none" stroke="#C0C0C0" stroke-width="5" d="M127.5,17.5 a10,10 0 0,1 10,-10 h85 a10,10 0 0,1 10,10 v85 a10,10 0 0,1 -10,10 h-85 a10,10 0 0,1 -10,-10 z"/>

<path fill="url(#button)" stroke="black" d="M42,32 l48,28 l-48,28 z"/>

<path fill="url(#button)" stroke="black" d="M160,35 h10 v50 h-10 z m30,0 h10 v50 h-10 z"/>

<path fill="url(#button)" stroke="black" d="M276,40 a4,4 0 0,1 4,-4 h40 a4,4 0 0,1 4,4 v40 a4,4 0 0,1 -4,4 h-40 a4,4 0 0,1 -4,-4 z"/>

<path fill="url(#button)" stroke="black" d="M526,85 h-10 v-50 h10 v20 l38,-20 v50 l-38,-20 z"/>

<path fill="url(#button)" stroke="black" d="M671,85 h10 v-50 h-10 v20 l-38,-20 v50 l38,-20 z"/>

<path fill="url(#button)" stroke="black" d="M755,35 h15 v50 h-15 z m55,25 l-30,-25 v50 z"/>

<path fill="url(#button)" stroke="black" d="M875,60 h50 l-25,-30 z m0,7.5 h50 v15 h-50 z"/>

<path fill="none" stroke="#C0C0C0" stroke-width="5" d="M1107.5,75 v-27.5 a5,5 0 0,1 5,-5 h10 v32.5 m-15,-17.5 h15
 m10,-17.5 v27.5 a5,5 0 0,0 5,5 h5 a5,5 0 0,0 5,-5 v-27.5
 m10,2.5 h10 a5,5 0 0,1 5,5 v20 a5,5 0 0,1 -5,5 h-10 z"/>

<path fill="none" stroke="#C0C0C0" stroke-width="5" d="M1227.5,65 v2.5 a5,5 0 0,0 5,5 h5 a5,5 0 0,0 5,-5 v-5 a5,5 0 0,0 -5,-5 h-5 a5,5 0 0,1 -5,-5 v-5 a5,5 0 0,1 5,-5 h5 a5,5 0 0,1 5,5 v2.5
 m10,-10 v27.5 a5,5 0 0,0 5,5 h5 a5,5 0 0,0 5,-5 v-27.5
 m10,17.5 h10 a5,5 0 0,0 5,-5 v-5 a5,5 0 0,0 -5,-5 h-10 v30 h10 a5,5 0 0,0 5,-5 v-5 a5,5 0 0,0 -5,-5"/>

<path fill="url(#button)" stroke="black" d="M1505,30 v60 l-17.5,-17.5 h-12.5 a5,5 0 0,1 -5,-5 v-15 a5,5 0 0,1 5,-5 h12.5 z"/>
<path fill="white" d="M1510.029,44.23 a27.5,27.5 0 0,1 0,31.54 a2.5,2.5 0 0,0 4.096,2.868 a32.5,32.5 0 0,0 0,-37.276 a2.5,2.5 0 0,0 -4.096,2.868
 m12.288,-8.602 a42.5,42.5 0 0,1 0,48.744 a2.5,2.5 0 0,0 4.097,2.867 a47.5,47.5 0 0,0 0,-54.478 a2.5,2.5 0 0,0 -4.097,2.867"/>

<path fill="url(#button)" stroke="black" d="M1625,30 v60 l-17.5,-17.5 h-12.5 a5,5 0 0,1 -5,-5 v-15 a5,5 0 0,1 5,-5 h12.5 z"/>
<path fill="url(#silence)" d="M1642.5,60 l-7.5,-7.5 a5.3033,5.3033 0 0,1 7.5,-7.5 l7.5,7.5 l7.5,-7.5 a5.3033,5.3033 0 0,1 7.5,7.5 l-7.5,7.5 l7.5,7.5 a5.3033,5.3033 0 0,1 -7.5,7.5 l-7.5,-7.5 l-7.5,7.5 a5.3033,5.3033 0 0,1 -7.5,-7.5 z"/>

<path fill="url(#button)" stroke="black" d="M1755,30 v60 l-17.5,-17.5 h-12.5 a5,5 0 0,1 -5,-5 v-15 a5,5 0 0,1 5,-5 h12.5 z"/>

<path fill="none" stroke="#C0C0C0" stroke-width="5" d="M1802.5,32.5 a10,10 0 0,1 10,-10 h95 a10,10 0 0,1 10,10 v50 a10,10 0 0,1 -10,10 h-95 a10,10 0 0,1 -10,-10 z"/>
<path fill="none" stroke="#C0C0C0" stroke-width="5" d="M1842.5,50 v-2.5 a5,5 0 0,0 -5,-5 h-5 a5,5 0 0,0 -5,5 v20 a5,5 0 0,0 5,5 h5 a5,5 0 0,0 5,-5 v-10 h-7.5
 m17.5,17.5 v-32.5 h10 a5,5 0 0,1 5,5 v5 a5,5 0 0,1 -5,5 h-10
 m25,-17.5 v27.5 a5,5 0 0,0 5,5 h5 a5,5 0 0,0 5,-5 v-27.5"/>

</svg>